%TF.GenerationSoftware,KiCad,Pcbnew,(5.1.12)-1*%
%TF.CreationDate,2023-08-15T20:50:01-04:00*%
%TF.ProjectId,Revision 4,52657669-7369-46f6-9e20-342e6b696361,3*%
%TF.SameCoordinates,Original*%
%TF.FileFunction,Profile,NP*%
%FSLAX46Y46*%
G04 Gerber Fmt 4.6, Leading zero omitted, Abs format (unit mm)*
G04 Created by KiCad (PCBNEW (5.1.12)-1) date 2023-08-15 20:50:01*
%MOMM*%
%LPD*%
G01*
G04 APERTURE LIST*
%TA.AperFunction,Profile*%
%ADD10C,0.050000*%
%TD*%
%TA.AperFunction,Profile*%
%ADD11C,0.150000*%
%TD*%
G04 APERTURE END LIST*
D10*
X42062400Y-20002500D02*
X23000000Y-20000000D01*
X42062400Y-21653500D02*
X42062400Y-20002500D01*
X43675300Y-21653500D02*
X42062400Y-21653500D01*
X43675300Y-20002500D02*
X43675300Y-21653500D01*
X50558700Y-20002500D02*
X43675300Y-20002500D01*
X50558700Y-21653500D02*
X50558700Y-20002500D01*
X52171600Y-21653500D02*
X50558700Y-21653500D01*
X52171600Y-20002500D02*
X52171600Y-21653500D01*
X58559700Y-20002500D02*
X52171600Y-20002500D01*
X58559700Y-21653500D02*
X58559700Y-20002500D01*
X60185300Y-21653500D02*
X58559700Y-21653500D01*
X60185300Y-20002500D02*
X60185300Y-21653500D01*
X67068700Y-20002500D02*
X60185300Y-20002500D01*
X67068700Y-21653500D02*
X67068700Y-20002500D01*
X68694300Y-21653500D02*
X67068700Y-21653500D01*
X68694300Y-20002500D02*
X68694300Y-21653500D01*
X70459600Y-20002500D02*
X68694300Y-20002500D01*
X90805000Y-20002500D02*
X70459600Y-20002500D01*
D11*
X140500000Y-170500000D02*
X140500000Y-173500000D01*
D10*
X90805000Y-20002500D02*
X255000000Y-20002500D01*
X23000000Y-194000000D02*
X255000000Y-194000000D01*
D11*
X41000000Y-170500000D02*
X41000000Y-173500000D01*
X41000000Y-173500000D02*
G75*
G02*
X38000000Y-173500000I-1500000J0D01*
G01*
X38000000Y-170500000D02*
G75*
G02*
X41000000Y-170500000I1500000J0D01*
G01*
X38000000Y-170500000D02*
X38000000Y-173500000D01*
X140500000Y-173500000D02*
G75*
G02*
X137500000Y-173500000I-1500000J0D01*
G01*
X137500000Y-170500000D02*
G75*
G02*
X140500000Y-170500000I1500000J0D01*
G01*
X137500000Y-170500000D02*
X137500000Y-173500000D01*
X240000000Y-170500000D02*
X240000000Y-173500000D01*
X240000000Y-173500000D02*
G75*
G02*
X237000000Y-173500000I-1500000J0D01*
G01*
X237000000Y-170500000D02*
G75*
G02*
X240000000Y-170500000I1500000J0D01*
G01*
X237000000Y-170500000D02*
X237000000Y-173500000D01*
X240000000Y-40500000D02*
X240000000Y-43500000D01*
X240000000Y-43500000D02*
G75*
G02*
X237000000Y-43500000I-1500000J0D01*
G01*
X237000000Y-40500000D02*
G75*
G02*
X240000000Y-40500000I1500000J0D01*
G01*
X237000000Y-40500000D02*
X237000000Y-43500000D01*
X41000000Y-40500000D02*
X41000000Y-43500000D01*
X41000000Y-43500000D02*
G75*
G02*
X38000000Y-43500000I-1500000J0D01*
G01*
X38000000Y-40500000D02*
G75*
G02*
X41000000Y-40500000I1500000J0D01*
G01*
X38000000Y-40500000D02*
X38000000Y-43500000D01*
X137500000Y-40500000D02*
X137500000Y-43500000D01*
X137500000Y-40500000D02*
G75*
G02*
X140500000Y-40500000I1500000J0D01*
G01*
X140500000Y-43500000D02*
G75*
G02*
X137500000Y-43500000I-1500000J0D01*
G01*
X140500000Y-40500000D02*
X140500000Y-43500000D01*
D10*
X20000000Y-101000000D02*
G75*
G02*
X20000000Y-113000000I0J-6000000D01*
G01*
X258000000Y-113000000D02*
X258000000Y-191000000D01*
X258000000Y-23000000D02*
X258000000Y-101000000D01*
X20000000Y-191000000D02*
X20000000Y-113000000D01*
X255000000Y-20000000D02*
G75*
G02*
X258000000Y-23000000I0J-3000000D01*
G01*
X258000000Y-191000000D02*
G75*
G02*
X255000000Y-194000000I-3000000J0D01*
G01*
X23000000Y-194000000D02*
G75*
G02*
X20000000Y-191000000I0J3000000D01*
G01*
X20000000Y-101000000D02*
X20000000Y-23000000D01*
X20000000Y-23000000D02*
G75*
G02*
X23000000Y-20000000I3000000J0D01*
G01*
X258000000Y-113000000D02*
G75*
G02*
X258000000Y-101000000I0J6000000D01*
G01*
M02*
