M48
; DRILL file {KiCad (5.1.12)-1} date 08/15/23 20:50:19
; FORMAT={-:-/ absolute / metric / decimal}
; #@! TF.CreationDate,2023-08-15T20:50:19-04:00
; #@! TF.GenerationSoftware,Kicad,Pcbnew,(5.1.12)-1
; #@! TF.FileFunction,Plated,1,2,PTH
FMAT,2
METRIC
T1C0.400
T2C0.800
T3C0.864
T4C0.900
T5C0.970
T6C1.000
T7C1.100
T8C1.270
T9C1.300
T10C1.500
T11C1.650
T12C3.200
T13C3.937
%
G90
G05
T1
X44.351Y-50.781
X49.989Y-101.061
X54.328Y-62.23
X55.446Y-61.131
X55.818Y-72.276
X56.466Y-49.405
X56.583Y-73.66
X66.889Y-114.273
X67.109Y-75.699
X67.701Y-65.61
X67.9Y-88.941
X68.024Y-93.26
X68.176Y-68.589
X68.613Y-66.522
X68.742Y-114.404
X69.525Y-164.822
X69.776Y-53.758
X69.938Y-94.641
X70.809Y-86.29
X71.041Y-89.597
X74.823Y-97.79
X74.899Y-77.08
X76.96Y-49.612
X77.172Y-86.321
X79.414Y-55.198
X79.691Y-89.367
X80.143Y-50.903
X82.591Y-95.15
X82.928Y-63.163
X83.238Y-64.801
X83.428Y-61.027
X85.951Y-59.607
X87.179Y-80.307
X89.87Y-73.66
X89.992Y-71.913
X93.694Y-127.635
X116.319Y-131.6
X116.548Y-135.132
X121.892Y-93.866
X123.119Y-29.797
X123.737Y-89.48
X123.737Y-94.577
X124.462Y-73.982
X124.468Y-96.269
X128.399Y-153.035
X128.932Y-41.336
X128.965Y-155.678
X128.972Y-65.927
X129.508Y-158.115
X130.183Y-88.9
X130.321Y-158.961
X131.204Y-100.127
X132.602Y-101.129
X135.097Y-163.212
X136.184Y-85.159
X136.516Y-57.536
X137.728Y-87.182
X138.566Y-57.801
X140.227Y-58.624
X141.927Y-93.39
X143.186Y-52.988
X145.999Y-86.408
X150.129Y-122.052
X151.131Y-77.47
X151.145Y-86.44
X151.8Y-136.608
X153.159Y-70.006
X153.303Y-37.647
X154.927Y-125.999
X156.258Y-95.39
X157.728Y-36.49
X160.761Y-129.776
X162.935Y-140.232
X164.624Y-125.199
X165.203Y-127.552
X167.8Y-56.841
X168.581Y-48.384
X173.42Y-121.443
X176.502Y-148.62
X177.035Y-155.427
X179.041Y-118.893
X180.022Y-101.036
X180.534Y-100.127
X188.012Y-131.283
X188.793Y-129.427
X188.942Y-94.28
X189.672Y-84.025
X191.261Y-131.637
X191.892Y-112.74
X192.117Y-132.386
X192.126Y-111.469
X192.32Y-166.399
X192.872Y-146.835
X193.05Y-62.93
X193.594Y-165.632
X197.648Y-62.163
X197.96Y-125.977
X200.736Y-130.653
X203.959Y-136.616
X204.107Y-127.532
X204.385Y-167.372
X206.402Y-103.505
X206.428Y-95.185
X207.429Y-133.247
X210.429Y-119.557
X211.269Y-144.042
X211.566Y-147.138
X211.74Y-120.447
X213.096Y-156.845
X213.846Y-152.619
X215.409Y-155.49
X218.075Y-74.9
X218.608Y-73.228
X227.952Y-171.135
X241.471Y-128.665
X247.139Y-56.153
X247.352Y-139.738
X248.798Y-104.004
X249.616Y-139.903
T2
X26.035Y-65.087
X26.67Y-116.522
X26.67Y-120.332
X26.67Y-124.142
X26.67Y-127.952
X26.67Y-131.762
X26.67Y-135.572
X26.67Y-139.382
X26.67Y-143.192
X27.94Y-40.957
X28.298Y-108.862
X29.21Y-57.785
X30.94Y-40.957
X32.385Y-79.057
X33.01Y-57.785
X33.655Y-106.362
X33.655Y-108.862
X33.94Y-40.957
X34.925Y-79.057
X36.195Y-65.087
X36.83Y-116.522
X36.83Y-120.332
X36.83Y-124.142
X36.83Y-127.952
X36.83Y-131.762
X36.83Y-135.572
X36.83Y-139.382
X36.83Y-143.192
X37.465Y-79.057
X38.506Y-186.207
X38.506Y-191.364
X41.006Y-186.207
X42.862Y-49.53
X42.862Y-52.07
X42.862Y-54.61
X42.862Y-57.15
X42.862Y-59.69
X42.862Y-62.23
X42.862Y-64.77
X42.862Y-67.31
X42.862Y-69.85
X42.862Y-72.39
X42.862Y-82.55
X42.862Y-85.09
X42.862Y-87.63
X42.862Y-90.17
X42.862Y-92.71
X42.862Y-95.25
X42.862Y-97.79
X42.862Y-116.205
X42.862Y-118.745
X42.862Y-121.285
X42.862Y-123.825
X42.862Y-126.365
X42.862Y-128.905
X42.862Y-131.445
X42.862Y-133.985
X42.862Y-136.525
X42.862Y-139.065
X42.862Y-141.605
X42.862Y-144.145
X42.862Y-146.685
X42.862Y-149.225
X42.862Y-151.765
X42.862Y-154.305
X42.862Y-156.845
X42.862Y-159.385
X42.862Y-161.925
X42.862Y-164.465
X45.442Y-45.085
X45.442Y-49.49
X45.442Y-72.35
X45.442Y-78.105
X45.442Y-97.75
X45.443Y-108.862
X47.942Y-45.085
X47.942Y-49.53
X47.942Y-78.105
X47.974Y-82.581
X48.03Y-106.91
X48.895Y-37.148
X48.895Y-39.648
X49.252Y-111.76
X49.252Y-116.165
X49.252Y-156.805
X49.253Y-108.862
X50.482Y-49.53
X50.482Y-52.07
X50.482Y-54.61
X50.482Y-57.15
X50.482Y-59.69
X50.482Y-62.23
X50.482Y-64.77
X50.482Y-67.31
X50.482Y-69.85
X50.482Y-72.39
X50.482Y-82.55
X50.482Y-85.09
X50.482Y-87.63
X50.482Y-90.17
X50.482Y-92.71
X50.482Y-95.25
X50.482Y-97.79
X51.645Y-23.882
X51.752Y-111.76
X51.752Y-116.205
X51.752Y-146.685
X51.752Y-154.305
X51.752Y-191.452
X51.84Y-106.91
X53.467Y-32.385
X53.467Y-42.545
X56.959Y-32.385
X56.959Y-42.545
X58.102Y-49.53
X58.102Y-52.07
X58.102Y-54.61
X58.102Y-57.15
X58.102Y-59.69
X58.102Y-62.23
X58.102Y-64.77
X58.102Y-67.31
X58.102Y-69.85
X58.102Y-72.39
X58.102Y-74.93
X58.102Y-77.47
X58.102Y-80.01
X58.102Y-82.55
X58.102Y-116.205
X58.102Y-118.745
X58.102Y-121.285
X58.102Y-123.825
X58.102Y-126.365
X58.102Y-128.905
X58.102Y-131.445
X58.102Y-133.985
X58.102Y-136.525
X58.102Y-139.065
X58.102Y-141.605
X58.102Y-144.145
X58.102Y-146.685
X58.102Y-149.225
X58.102Y-151.765
X58.102Y-154.305
X58.102Y-156.845
X58.102Y-159.385
X58.102Y-161.925
X58.102Y-164.465
X60.682Y-45.085
X60.682Y-49.49
X60.682Y-82.51
X61.087Y-36.512
X61.087Y-41.91
X63.182Y-45.085
X63.182Y-49.53
X63.627Y-36.512
X65.722Y-49.53
X65.722Y-52.07
X65.722Y-54.61
X65.722Y-57.15
X65.722Y-59.69
X65.722Y-62.23
X65.722Y-64.77
X65.722Y-67.31
X65.722Y-69.85
X65.722Y-72.39
X65.722Y-74.93
X65.722Y-77.47
X65.722Y-80.01
X65.722Y-82.55
X65.722Y-116.205
X65.722Y-118.745
X65.722Y-121.285
X65.722Y-123.825
X65.722Y-126.365
X65.722Y-128.905
X65.722Y-131.445
X65.722Y-133.985
X65.722Y-136.525
X65.722Y-139.065
X65.722Y-141.605
X65.722Y-144.145
X65.722Y-146.685
X65.722Y-149.225
X65.722Y-151.765
X65.722Y-154.305
X65.722Y-156.845
X65.722Y-159.385
X65.722Y-161.925
X65.722Y-164.465
X66.167Y-36.512
X67.627Y-24.13
X70.485Y-23.177
X71.247Y-41.91
X72.112Y-111.76
X72.112Y-116.165
X72.112Y-156.805
X72.113Y-108.862
X72.517Y-28.892
X72.517Y-31.432
X72.517Y-33.972
X73.343Y-49.53
X73.343Y-52.07
X73.343Y-54.61
X73.343Y-57.15
X73.343Y-59.69
X73.343Y-62.23
X73.343Y-64.77
X73.343Y-67.31
X73.343Y-69.85
X73.343Y-72.39
X73.343Y-82.55
X73.343Y-85.09
X73.343Y-87.63
X73.343Y-90.17
X73.343Y-92.71
X73.343Y-95.25
X73.343Y-97.79
X73.343Y-100.33
X73.343Y-102.87
X73.343Y-105.41
X74.612Y-111.76
X74.612Y-116.205
X74.612Y-146.685
X74.612Y-154.305
X74.612Y-191.452
X75.922Y-45.085
X75.922Y-72.35
X75.922Y-78.105
X75.922Y-82.51
X75.922Y-105.37
X76.327Y-40.64
X77.24Y-106.91
X78.422Y-45.085
X78.422Y-49.53
X78.422Y-78.105
X78.422Y-82.55
X78.827Y-40.64
X80.962Y-49.53
X80.962Y-52.07
X80.962Y-54.61
X80.962Y-57.15
X80.962Y-59.69
X80.962Y-62.23
X80.962Y-64.77
X80.962Y-67.31
X80.962Y-69.85
X80.962Y-72.39
X80.962Y-82.55
X80.962Y-85.09
X80.962Y-87.63
X80.962Y-90.17
X80.962Y-92.71
X80.962Y-95.25
X80.962Y-97.79
X80.962Y-100.33
X80.962Y-102.87
X80.962Y-105.41
X80.962Y-116.205
X80.962Y-118.745
X80.962Y-121.285
X80.962Y-123.825
X80.962Y-126.365
X80.962Y-128.905
X80.962Y-131.445
X80.962Y-133.985
X80.962Y-136.525
X80.962Y-139.065
X80.962Y-141.605
X80.962Y-144.145
X80.962Y-146.685
X80.962Y-149.225
X80.962Y-151.765
X80.962Y-154.305
X80.962Y-156.845
X80.962Y-159.385
X80.962Y-161.925
X80.962Y-164.465
X86.962Y-22.258
X88.582Y-49.53
X88.582Y-52.07
X88.582Y-54.61
X88.582Y-57.15
X88.582Y-59.69
X88.582Y-62.23
X88.582Y-64.77
X88.582Y-67.31
X88.582Y-69.85
X88.582Y-72.39
X88.582Y-74.93
X88.582Y-77.47
X88.582Y-80.01
X88.582Y-82.55
X88.582Y-85.09
X88.582Y-87.63
X88.582Y-90.17
X88.582Y-92.71
X88.582Y-95.25
X88.582Y-97.79
X88.582Y-107.315
X88.582Y-109.815
X88.582Y-116.205
X88.582Y-118.745
X88.582Y-121.285
X88.582Y-123.825
X88.582Y-126.365
X88.582Y-128.905
X88.582Y-131.445
X88.582Y-133.985
X88.582Y-136.525
X88.582Y-139.065
X88.582Y-141.605
X88.582Y-144.145
X88.582Y-146.685
X88.582Y-149.225
X88.582Y-151.765
X88.582Y-154.305
X88.582Y-156.845
X88.582Y-159.385
X88.582Y-161.925
X88.582Y-164.465
X94.972Y-45.085
X94.972Y-77.43
X94.972Y-109.815
X94.972Y-111.76
X94.972Y-116.165
X94.972Y-156.805
X95.25Y-22.543
X97.472Y-45.085
X97.472Y-67.31
X97.472Y-107.315
X97.472Y-111.76
X97.472Y-116.205
X97.472Y-146.685
X97.472Y-154.305
X97.472Y-191.452
X100.648Y-31.432
X103.822Y-49.53
X103.822Y-52.07
X103.822Y-54.61
X103.822Y-57.15
X103.822Y-59.69
X103.822Y-62.23
X103.822Y-64.77
X103.822Y-67.31
X103.822Y-69.85
X103.822Y-72.39
X103.822Y-74.93
X103.822Y-77.47
X103.822Y-80.01
X103.822Y-82.55
X103.822Y-85.09
X103.822Y-87.63
X103.822Y-90.17
X103.822Y-92.71
X103.822Y-95.25
X103.822Y-97.79
X103.822Y-116.205
X103.822Y-118.745
X103.822Y-121.285
X103.822Y-123.825
X103.822Y-126.365
X103.822Y-128.905
X103.822Y-131.445
X103.822Y-133.985
X103.822Y-136.525
X103.822Y-139.065
X103.822Y-141.605
X103.822Y-144.145
X103.822Y-146.685
X103.822Y-149.225
X103.822Y-151.765
X103.822Y-154.305
X103.822Y-156.845
X103.822Y-159.385
X103.822Y-161.925
X103.822Y-164.465
X110.172Y-49.53
X110.172Y-67.945
X111.442Y-56.197
X111.442Y-61.097
X111.442Y-116.205
X111.442Y-118.745
X111.442Y-121.285
X111.442Y-123.825
X111.442Y-126.365
X111.442Y-128.905
X111.442Y-131.445
X111.442Y-133.985
X111.442Y-136.525
X111.442Y-139.065
X111.442Y-141.605
X111.442Y-144.145
X111.442Y-146.685
X111.442Y-149.225
X111.442Y-151.765
X111.442Y-154.305
X111.442Y-156.845
X111.442Y-159.385
X111.442Y-161.925
X111.442Y-164.465
X112.672Y-49.53
X112.672Y-67.945
X117.832Y-109.815
X117.832Y-111.76
X117.832Y-116.166
X117.832Y-156.806
X118.14Y-22.255
X119.062Y-49.53
X119.062Y-52.07
X119.062Y-54.61
X119.062Y-57.15
X119.062Y-59.69
X119.062Y-62.23
X119.062Y-64.77
X119.062Y-67.31
X119.062Y-69.85
X119.062Y-72.39
X119.062Y-74.93
X119.062Y-77.47
X119.062Y-80.01
X119.062Y-82.55
X119.062Y-85.09
X119.062Y-87.63
X119.062Y-90.17
X119.062Y-92.71
X119.062Y-95.25
X119.062Y-97.79
X120.332Y-107.315
X120.332Y-111.76
X120.332Y-116.204
X120.332Y-146.686
X120.332Y-154.304
X120.332Y-191.452
X125.452Y-45.085
X125.452Y-49.49
X126.682Y-22.543
X126.682Y-116.205
X126.682Y-118.745
X126.682Y-121.285
X126.682Y-123.825
X126.682Y-126.365
X126.682Y-128.905
X126.682Y-131.445
X126.682Y-133.985
X126.682Y-136.525
X126.682Y-139.065
X126.682Y-141.605
X126.682Y-144.145
X126.682Y-146.685
X126.682Y-149.225
X126.682Y-151.765
X126.682Y-154.305
X126.682Y-156.845
X126.682Y-159.385
X126.682Y-161.925
X126.682Y-164.465
X127.952Y-45.085
X127.952Y-90.17
X127.952Y-97.789
X134.302Y-49.53
X134.302Y-52.07
X134.302Y-54.61
X134.302Y-57.15
X134.302Y-59.69
X134.302Y-62.23
X134.302Y-64.77
X134.302Y-67.31
X134.302Y-69.85
X134.302Y-72.39
X134.302Y-74.93
X134.302Y-77.47
X134.302Y-80.01
X134.302Y-82.55
X134.302Y-85.09
X134.302Y-87.63
X134.302Y-90.17
X134.302Y-92.71
X134.302Y-95.25
X134.302Y-97.79
X134.302Y-131.445
X134.302Y-133.985
X134.302Y-136.525
X134.302Y-139.065
X134.302Y-141.605
X134.302Y-144.145
X134.302Y-146.685
X134.302Y-149.225
X134.302Y-151.765
X134.302Y-154.305
X134.302Y-156.845
X134.302Y-159.385
X134.302Y-161.925
X134.302Y-164.465
X136.882Y-127.0
X136.882Y-164.426
X137.795Y-186.372
X137.795Y-191.452
X138.112Y-107.315
X138.112Y-109.815
X139.382Y-127.0
X139.441Y-131.503
X140.295Y-186.372
X140.652Y-67.31
X140.692Y-71.12
X140.692Y-88.9
X141.922Y-49.53
X141.922Y-52.07
X141.922Y-54.61
X141.922Y-57.15
X141.922Y-59.69
X141.922Y-62.23
X141.922Y-64.77
X141.922Y-77.47
X141.922Y-82.37
X141.922Y-131.445
X141.922Y-133.985
X141.922Y-136.525
X141.922Y-139.065
X141.922Y-141.605
X141.922Y-144.145
X141.922Y-146.685
X141.922Y-149.225
X141.922Y-151.765
X141.922Y-154.305
X141.922Y-156.845
X141.922Y-159.385
X141.922Y-161.925
X141.922Y-164.465
X142.434Y-191.329
X143.192Y-71.12
X143.192Y-88.9
X146.89Y-22.337
X149.542Y-49.53
X149.542Y-52.07
X149.542Y-54.61
X149.542Y-57.15
X149.542Y-59.69
X149.542Y-62.23
X149.542Y-64.77
X149.542Y-67.31
X149.542Y-69.85
X149.542Y-72.39
X149.542Y-74.93
X149.542Y-77.47
X149.542Y-80.01
X149.542Y-82.55
X149.542Y-136.525
X149.542Y-139.065
X149.542Y-141.605
X149.542Y-144.145
X149.542Y-146.685
X149.542Y-149.225
X149.542Y-151.765
X149.542Y-154.305
X149.542Y-156.845
X149.542Y-159.385
X149.542Y-161.925
X149.542Y-164.465
X152.122Y-45.085
X152.122Y-65.087
X152.122Y-67.27
X154.622Y-45.085
X154.622Y-63.5
X154.622Y-69.849
X155.932Y-132.08
X155.932Y-164.426
X155.932Y-168.553
X156.25Y-109.815
X157.162Y-49.53
X157.162Y-52.07
X157.162Y-54.61
X157.162Y-57.15
X157.162Y-59.69
X157.162Y-62.23
X157.162Y-64.77
X157.162Y-67.31
X157.162Y-69.85
X157.162Y-72.39
X157.162Y-74.93
X157.162Y-77.47
X157.162Y-80.01
X157.162Y-82.55
X158.432Y-107.315
X158.432Y-132.08
X158.432Y-136.524
X158.432Y-170.18
X158.432Y-191.452
X163.654Y-22.401
X164.782Y-49.53
X164.782Y-52.07
X164.782Y-54.61
X164.782Y-57.15
X164.782Y-59.69
X164.782Y-62.23
X164.782Y-64.77
X164.782Y-67.31
X164.782Y-69.85
X164.782Y-72.39
X164.782Y-74.93
X164.782Y-77.47
X164.782Y-80.01
X164.782Y-82.55
X164.782Y-136.525
X164.782Y-139.065
X164.782Y-141.605
X164.782Y-144.145
X164.782Y-146.685
X164.782Y-149.225
X164.782Y-151.765
X164.782Y-154.305
X164.782Y-156.845
X164.782Y-159.385
X164.782Y-161.925
X164.782Y-164.465
X167.005Y-191.452
X171.172Y-45.085
X171.172Y-49.49
X171.172Y-77.43
X173.672Y-45.085
X173.672Y-52.07
X173.672Y-82.549
X180.022Y-49.53
X180.022Y-52.07
X180.022Y-54.61
X180.022Y-57.15
X180.022Y-59.69
X180.022Y-62.23
X180.022Y-64.77
X180.022Y-67.31
X180.022Y-69.85
X180.022Y-72.39
X180.022Y-74.93
X180.022Y-77.47
X180.022Y-80.01
X180.022Y-82.55
X180.062Y-159.028
X180.062Y-168.552
X180.418Y-22.303
X180.935Y-109.815
X181.015Y-111.76
X183.515Y-107.315
X183.515Y-111.76
X184.468Y-126.048
X184.468Y-170.18
X187.642Y-49.53
X187.642Y-52.07
X187.642Y-54.61
X187.642Y-57.15
X187.642Y-59.69
X187.642Y-62.23
X187.642Y-64.77
X187.642Y-67.31
X187.642Y-69.85
X187.642Y-72.39
X187.642Y-74.93
X187.642Y-77.47
X187.642Y-80.01
X187.642Y-82.55
X194.032Y-45.085
X194.032Y-49.49
X194.032Y-77.43
X196.532Y-35.878
X196.532Y-45.085
X196.532Y-52.07
X196.532Y-82.549
X200.342Y-98.425
X200.342Y-100.965
X200.342Y-103.505
X200.342Y-106.045
X200.342Y-108.585
X200.342Y-111.125
X200.342Y-113.665
X200.342Y-116.205
X200.342Y-118.745
X200.342Y-121.285
X200.342Y-123.825
X200.342Y-126.365
X200.342Y-136.525
X200.342Y-139.065
X200.342Y-141.605
X200.342Y-144.145
X200.342Y-146.685
X200.342Y-149.225
X200.342Y-151.765
X200.342Y-154.305
X200.342Y-156.845
X200.342Y-159.385
X200.342Y-161.925
X200.342Y-164.465
X202.882Y-49.53
X202.882Y-52.07
X202.882Y-54.61
X202.882Y-57.15
X202.882Y-59.69
X202.882Y-62.23
X202.882Y-64.77
X202.882Y-67.31
X202.882Y-69.85
X202.882Y-72.39
X202.882Y-74.93
X202.882Y-77.47
X202.882Y-80.01
X202.882Y-82.55
X202.922Y-93.98
X202.922Y-126.365
X202.922Y-132.08
X202.922Y-164.426
X202.922Y-168.553
X205.422Y-93.98
X205.422Y-98.425
X205.422Y-132.08
X205.422Y-136.524
X205.422Y-170.18
X207.328Y-49.57
X207.328Y-52.07
X207.328Y-54.61
X207.328Y-57.11
X207.328Y-59.69
X207.328Y-62.19
X207.328Y-64.81
X207.328Y-67.31
X207.962Y-98.425
X207.962Y-100.965
X207.962Y-103.505
X207.962Y-106.045
X207.962Y-108.585
X207.962Y-111.125
X207.962Y-113.665
X207.962Y-116.205
X207.962Y-118.745
X207.962Y-121.285
X207.962Y-123.825
X207.962Y-126.365
X207.962Y-136.525
X207.962Y-139.065
X207.962Y-141.605
X207.962Y-144.145
X207.962Y-146.685
X207.962Y-149.225
X207.962Y-151.765
X207.962Y-154.305
X207.962Y-156.845
X207.962Y-159.385
X207.962Y-161.925
X207.962Y-164.465
X210.185Y-191.452
X210.502Y-80.01
X210.502Y-87.63
X211.772Y-49.53
X211.772Y-52.07
X211.772Y-54.61
X211.772Y-57.15
X211.772Y-59.69
X211.772Y-62.23
X211.772Y-64.77
X211.772Y-67.31
X213.042Y-74.295
X213.042Y-77.47
X213.042Y-116.205
X213.042Y-118.745
X213.042Y-121.285
X213.042Y-123.825
X213.042Y-126.365
X213.042Y-128.905
X213.043Y-108.268
X214.352Y-45.085
X214.352Y-52.03
X215.542Y-74.295
X215.582Y-69.532
X215.582Y-85.09
X216.852Y-45.085
X216.852Y-49.529
X217.528Y-38.735
X218.122Y-80.01
X218.122Y-87.63
X218.122Y-116.205
X218.122Y-118.745
X218.122Y-121.285
X218.122Y-123.825
X218.122Y-126.365
X218.122Y-128.905
X218.122Y-131.445
X218.122Y-133.985
X218.122Y-136.525
X218.122Y-139.065
X218.122Y-141.605
X218.122Y-144.145
X218.122Y-146.685
X218.122Y-149.225
X218.122Y-151.765
X218.122Y-154.305
X218.122Y-156.845
X218.122Y-159.385
X218.122Y-161.925
X218.122Y-164.465
X219.392Y-49.53
X219.392Y-52.07
X219.392Y-54.61
X219.392Y-57.15
X219.392Y-59.69
X219.392Y-62.23
X219.392Y-64.77
X219.392Y-67.31
X220.028Y-22.543
X220.028Y-35.877
X220.028Y-38.735
X223.838Y-49.57
X223.838Y-52.07
X223.838Y-54.61
X223.838Y-57.11
X223.838Y-59.69
X223.838Y-62.19
X223.838Y-64.81
X223.838Y-67.31
X224.472Y-111.76
X224.472Y-133.984
X224.472Y-170.18
X224.472Y-191.452
X224.473Y-108.268
X226.972Y-111.76
X226.972Y-164.424
X226.972Y-168.633
X227.012Y-80.01
X227.012Y-87.63
X227.053Y-105.768
X228.282Y-49.53
X228.282Y-52.07
X228.282Y-54.61
X228.282Y-57.15
X228.282Y-59.69
X228.282Y-62.23
X228.282Y-64.77
X228.282Y-67.31
X229.552Y-74.295
X229.552Y-77.47
X230.862Y-45.085
X230.862Y-52.03
X232.052Y-74.295
X232.052Y-85.05
X233.362Y-45.085
X233.362Y-49.529
X233.362Y-116.205
X233.362Y-118.745
X233.362Y-121.285
X233.362Y-123.825
X233.362Y-126.365
X233.362Y-128.905
X233.362Y-131.445
X233.362Y-133.985
X233.362Y-136.525
X233.362Y-139.065
X233.362Y-141.605
X233.362Y-144.145
X233.362Y-146.685
X233.362Y-149.225
X233.362Y-151.765
X233.362Y-154.305
X233.362Y-156.845
X233.362Y-159.385
X233.362Y-161.925
X233.362Y-164.465
X234.632Y-80.01
X234.632Y-87.63
X235.902Y-49.53
X235.902Y-52.07
X235.902Y-54.61
X235.902Y-57.15
X235.902Y-59.69
X235.902Y-62.23
X235.902Y-64.77
X235.902Y-67.31
X237.172Y-186.372
X237.172Y-191.452
X238.402Y-105.768
X238.442Y-116.205
X238.442Y-118.745
X238.442Y-121.285
X238.442Y-123.825
X238.442Y-126.365
X238.442Y-128.905
X238.442Y-131.445
X238.442Y-133.985
X238.442Y-136.525
X238.442Y-144.145
X238.442Y-146.685
X238.442Y-149.225
X238.442Y-151.765
X238.442Y-154.305
X238.442Y-156.845
X238.442Y-159.385
X238.442Y-161.925
X238.442Y-164.465
X239.672Y-186.372
X243.522Y-49.53
X243.522Y-52.07
X243.522Y-54.61
X243.522Y-57.15
X243.522Y-59.69
X243.522Y-62.23
X243.522Y-64.77
X243.522Y-80.01
X243.522Y-87.63
X243.522Y-105.768
X243.522Y-108.268
X243.522Y-141.605
X243.522Y-144.145
X243.522Y-146.685
X243.522Y-149.225
X243.522Y-151.765
X243.522Y-154.305
X243.522Y-156.845
X243.522Y-159.385
X243.522Y-161.925
X243.522Y-164.465
X245.984Y-64.612
X246.062Y-74.295
X246.062Y-77.47
X246.102Y-45.085
X246.102Y-137.16
X246.102Y-164.426
X248.562Y-74.295
X248.562Y-85.05
X248.602Y-45.085
X248.602Y-49.53
X248.602Y-57.151
X248.602Y-59.689
X248.602Y-137.16
X248.602Y-141.604
X249.514Y-105.768
X251.142Y-49.53
X251.142Y-52.07
X251.142Y-54.61
X251.142Y-57.15
X251.142Y-59.69
X251.142Y-62.23
X251.142Y-64.77
X251.142Y-80.01
X251.142Y-87.63
X251.142Y-141.605
X251.142Y-144.145
X251.142Y-146.685
X251.142Y-149.225
X251.142Y-151.765
X251.142Y-154.305
X251.142Y-156.845
X251.142Y-159.385
X251.142Y-161.925
X251.142Y-164.465
X255.548Y-85.05
T3
X174.625Y-126.048
X174.625Y-128.588
X174.625Y-131.128
X174.625Y-133.668
X174.625Y-136.208
X174.625Y-138.748
X174.625Y-141.288
X174.625Y-143.828
X174.625Y-146.368
X174.625Y-148.908
X174.625Y-151.448
X174.625Y-153.988
X174.625Y-156.528
X174.625Y-159.068
X189.865Y-126.048
X189.865Y-128.588
X189.865Y-131.128
X189.865Y-133.668
X189.865Y-136.208
X189.865Y-138.748
X189.865Y-141.288
X189.865Y-143.828
X189.865Y-146.368
X189.865Y-148.908
X189.865Y-151.448
X189.865Y-153.988
X189.865Y-156.528
X189.865Y-159.068
T4
X33.655Y-71.12
X36.195Y-71.12
T5
X140.19Y-28.638
X140.19Y-31.128
X142.24Y-28.638
X144.84Y-28.638
X146.89Y-28.638
X146.89Y-31.128
X156.954Y-28.638
X156.954Y-31.128
X159.004Y-28.638
X161.604Y-28.638
X163.654Y-28.638
X163.654Y-31.128
X173.718Y-28.638
X173.718Y-31.128
X175.768Y-28.638
X178.368Y-28.638
X180.418Y-28.638
X180.418Y-31.128
T6
X26.035Y-71.12
X26.035Y-79.057
X26.035Y-86.995
X28.575Y-71.12
X28.575Y-79.057
X28.575Y-86.995
X29.845Y-49.212
X32.385Y-49.212
X33.655Y-86.995
X36.195Y-86.995
X61.912Y-92.71
X61.912Y-95.25
X61.912Y-97.79
X164.465Y-179.07
X164.465Y-181.61
X164.782Y-89.218
X167.005Y-179.07
X167.005Y-181.61
X167.322Y-89.218
X169.545Y-179.07
X169.545Y-181.61
X170.815Y-39.052
X172.085Y-179.07
X172.085Y-181.61
X173.355Y-39.052
X174.625Y-179.07
X174.625Y-181.61
X175.895Y-39.052
X177.165Y-179.07
X177.165Y-181.61
X177.482Y-89.218
X178.435Y-39.052
X179.705Y-179.07
X179.705Y-181.61
X180.022Y-89.218
X180.975Y-39.052
X182.245Y-179.07
X182.245Y-181.61
X183.515Y-39.052
X184.785Y-179.07
X184.785Y-181.61
X187.325Y-179.07
X187.325Y-181.61
X189.865Y-179.07
X189.865Y-181.61
X192.405Y-179.07
X192.405Y-181.61
X194.945Y-179.07
X194.945Y-181.61
X196.057Y-30.988
X197.442Y-28.148
X197.485Y-179.07
X197.485Y-181.61
X198.827Y-30.988
X200.025Y-179.07
X200.025Y-181.61
X200.212Y-28.148
X201.597Y-30.988
X202.565Y-179.07
X202.565Y-181.61
X202.982Y-28.148
X204.367Y-30.988
X205.105Y-179.07
X205.105Y-181.61
X205.752Y-28.148
X207.137Y-30.988
X207.645Y-179.07
X207.645Y-181.61
X210.185Y-179.07
X210.185Y-181.61
X212.725Y-179.07
X212.725Y-181.61
X230.505Y-30.963
X231.89Y-28.123
X233.275Y-30.963
X234.66Y-28.123
X236.045Y-30.963
X237.43Y-28.123
X238.815Y-30.963
X240.2Y-28.123
X241.585Y-30.963
T7
X27.94Y-94.297
X27.94Y-98.797
X34.44Y-94.297
X34.44Y-98.797
T8
X82.902Y-37.228
X86.962Y-34.918
X86.962Y-37.228
X91.022Y-34.918
X91.022Y-37.228
X95.082Y-34.918
X95.082Y-37.228
X114.081Y-37.254
X118.14Y-34.944
X118.14Y-37.254
X122.2Y-34.944
X122.2Y-37.254
X126.26Y-34.944
X126.26Y-37.254
T11
X182.245Y-117.538
X182.245Y-163.638
T12
X189.097Y-29.568
X214.097Y-29.568
X223.545Y-29.543
X248.545Y-29.543
T13
X79.092Y-24.508
X98.892Y-24.508
X110.27Y-24.534
X130.07Y-24.534
T6
G00X26.415Y-26.162
M15
G01X26.415Y-28.162
M16
G05
G00X32.115Y-24.162
M15
G01X30.115Y-24.162
M16
G05
G00X32.115Y-30.162
M15
G01X30.115Y-30.162
M16
G05
G00X47.117Y-29.241
M15
G01X47.117Y-27.941
M16
G05
G00X63.627Y-29.241
M15
G01X63.627Y-27.941
M16
G05
G00X136.652Y-26.391
M15
G01X136.652Y-24.891
M16
G05
G00X150.419Y-26.391
M15
G01X150.419Y-24.891
M16
G05
G00X153.416Y-26.391
M15
G01X153.416Y-24.891
M16
G05
G00X167.183Y-26.391
M15
G01X167.183Y-24.891
M16
G05
G00X170.18Y-26.391
M15
G01X170.18Y-24.891
M16
G05
G00X183.947Y-26.391
M15
G01X183.947Y-24.891
M16
G05
T9
G00X46.067Y-24.091
M15
G01X48.167Y-24.091
M16
G05
G00X62.577Y-24.091
M15
G01X64.677Y-24.091
M16
G05
T10
G00X144.04Y-24.828
M15
G01X143.04Y-24.828
M16
G05
G00X160.804Y-24.828
M15
G01X159.804Y-24.828
M16
G05
G00X177.568Y-24.828
M15
G01X176.568Y-24.828
M16
G05
T0
M30
