%FSLAX45Y45*%
G04 Gerber Fmt 4.5, Leading zero omitted, Abs format (unit mm)*
G04 Created by KiCad (PCBNEW (5.1.12)-1) date 2023-08-15 20:50:20*
%MOMM*%
%LPD*%
G01*
G04 APERTURE LIST*
%TA.AperFunction,Profile*%
%ADD10C,0.050000*%
%TD*%
%TA.AperFunction,Profile*%
%ADD11C,0.150000*%
%TD*%
%ADD12C,0.200000*%
%ADD13C,0.300000*%
G04 APERTURE END LIST*
D10*
X4206240Y-2000250D02*
X2300000Y-2000000D01*
X4206240Y-2165350D02*
X4206240Y-2000250D01*
X4367530Y-2165350D02*
X4206240Y-2165350D01*
X4367530Y-2000250D02*
X4367530Y-2165350D01*
X5055870Y-2000250D02*
X4367530Y-2000250D01*
X5055870Y-2165350D02*
X5055870Y-2000250D01*
X5217160Y-2165350D02*
X5055870Y-2165350D01*
X5217160Y-2000250D02*
X5217160Y-2165350D01*
X5855970Y-2000250D02*
X5217160Y-2000250D01*
X5855970Y-2165350D02*
X5855970Y-2000250D01*
X6018530Y-2165350D02*
X5855970Y-2165350D01*
X6018530Y-2000250D02*
X6018530Y-2165350D01*
X6706870Y-2000250D02*
X6018530Y-2000250D01*
X6706870Y-2165350D02*
X6706870Y-2000250D01*
X6869430Y-2165350D02*
X6706870Y-2165350D01*
X6869430Y-2000250D02*
X6869430Y-2165350D01*
X7045960Y-2000250D02*
X6869430Y-2000250D01*
X9080500Y-2000250D02*
X7045960Y-2000250D01*
D11*
X14050000Y-17050000D02*
X14050000Y-17350000D01*
D10*
X9080500Y-2000250D02*
X25500000Y-2000250D01*
X2300000Y-19400000D02*
X25500000Y-19400000D01*
D11*
X4100000Y-17050000D02*
X4100000Y-17350000D01*
X4100000Y-17350000D02*
G75*
G02*
X3800000Y-17350000I-150000J0D01*
G01*
X3800000Y-17050000D02*
G75*
G02*
X4100000Y-17050000I150000J0D01*
G01*
X3800000Y-17050000D02*
X3800000Y-17350000D01*
X14050000Y-17350000D02*
G75*
G02*
X13750000Y-17350000I-150000J0D01*
G01*
X13750000Y-17050000D02*
G75*
G02*
X14050000Y-17050000I150000J0D01*
G01*
X13750000Y-17050000D02*
X13750000Y-17350000D01*
X24000000Y-17050000D02*
X24000000Y-17350000D01*
X24000000Y-17350000D02*
G75*
G02*
X23700000Y-17350000I-150000J0D01*
G01*
X23700000Y-17050000D02*
G75*
G02*
X24000000Y-17050000I150000J0D01*
G01*
X23700000Y-17050000D02*
X23700000Y-17350000D01*
X24000000Y-4050000D02*
X24000000Y-4350000D01*
X24000000Y-4350000D02*
G75*
G02*
X23700000Y-4350000I-150000J0D01*
G01*
X23700000Y-4050000D02*
G75*
G02*
X24000000Y-4050000I150000J0D01*
G01*
X23700000Y-4050000D02*
X23700000Y-4350000D01*
X4100000Y-4050000D02*
X4100000Y-4350000D01*
X4100000Y-4350000D02*
G75*
G02*
X3800000Y-4350000I-150000J0D01*
G01*
X3800000Y-4050000D02*
G75*
G02*
X4100000Y-4050000I150000J0D01*
G01*
X3800000Y-4050000D02*
X3800000Y-4350000D01*
X13750000Y-4050000D02*
X13750000Y-4350000D01*
X13750000Y-4050000D02*
G75*
G02*
X14050000Y-4050000I150000J0D01*
G01*
X14050000Y-4350000D02*
G75*
G02*
X13750000Y-4350000I-150000J0D01*
G01*
X14050000Y-4050000D02*
X14050000Y-4350000D01*
D10*
X2000000Y-10100000D02*
G75*
G02*
X2000000Y-11300000I0J-600000D01*
G01*
X25800000Y-11300000D02*
X25800000Y-19100000D01*
X25800000Y-2300000D02*
X25800000Y-10100000D01*
X2000000Y-19100000D02*
X2000000Y-11300000D01*
X25500000Y-2000000D02*
G75*
G02*
X25800000Y-2300000I0J-300000D01*
G01*
X25800000Y-19100000D02*
G75*
G02*
X25500000Y-19400000I-300000J0D01*
G01*
X2300000Y-19400000D02*
G75*
G02*
X2000000Y-19100000I0J300000D01*
G01*
X2000000Y-10100000D02*
X2000000Y-2300000D01*
X2000000Y-2300000D02*
G75*
G02*
X2300000Y-2000000I300000J0D01*
G01*
X25800000Y-11300000D02*
G75*
G02*
X25800000Y-10100000I0J600000D01*
G01*
D12*
D13*
X2283928Y-19868214D02*
X2283928Y-19568214D01*
X2355357Y-19568214D01*
X2398214Y-19582500D01*
X2426786Y-19611072D01*
X2441071Y-19639643D01*
X2455357Y-19696786D01*
X2455357Y-19739643D01*
X2441071Y-19796786D01*
X2426786Y-19825357D01*
X2398214Y-19853929D01*
X2355357Y-19868214D01*
X2283928Y-19868214D01*
X2583928Y-19868214D02*
X2583928Y-19668214D01*
X2583928Y-19725357D02*
X2598214Y-19696786D01*
X2612500Y-19682500D01*
X2641071Y-19668214D01*
X2669643Y-19668214D01*
X2769643Y-19868214D02*
X2769643Y-19668214D01*
X2769643Y-19568214D02*
X2755357Y-19582500D01*
X2769643Y-19596786D01*
X2783928Y-19582500D01*
X2769643Y-19568214D01*
X2769643Y-19596786D01*
X2955357Y-19868214D02*
X2926786Y-19853929D01*
X2912500Y-19825357D01*
X2912500Y-19568214D01*
X3112500Y-19868214D02*
X3083928Y-19853929D01*
X3069643Y-19825357D01*
X3069643Y-19568214D01*
X3455357Y-19868214D02*
X3455357Y-19568214D01*
X3555357Y-19782500D01*
X3655357Y-19568214D01*
X3655357Y-19868214D01*
X3926786Y-19868214D02*
X3926786Y-19711072D01*
X3912500Y-19682500D01*
X3883928Y-19668214D01*
X3826786Y-19668214D01*
X3798214Y-19682500D01*
X3926786Y-19853929D02*
X3898214Y-19868214D01*
X3826786Y-19868214D01*
X3798214Y-19853929D01*
X3783928Y-19825357D01*
X3783928Y-19796786D01*
X3798214Y-19768214D01*
X3826786Y-19753929D01*
X3898214Y-19753929D01*
X3926786Y-19739643D01*
X4069643Y-19668214D02*
X4069643Y-19968214D01*
X4069643Y-19682500D02*
X4098214Y-19668214D01*
X4155357Y-19668214D01*
X4183928Y-19682500D01*
X4198214Y-19696786D01*
X4212500Y-19725357D01*
X4212500Y-19811072D01*
X4198214Y-19839643D01*
X4183928Y-19853929D01*
X4155357Y-19868214D01*
X4098214Y-19868214D01*
X4069643Y-19853929D01*
X4341071Y-19839643D02*
X4355357Y-19853929D01*
X4341071Y-19868214D01*
X4326786Y-19853929D01*
X4341071Y-19839643D01*
X4341071Y-19868214D01*
X4341071Y-19682500D02*
X4355357Y-19696786D01*
X4341071Y-19711072D01*
X4326786Y-19696786D01*
X4341071Y-19682500D01*
X4341071Y-19711072D01*
M02*
